<svg id="Capa_1" data-name="Capa 1" xmlns="http://www.w3.org/2000/svg" viewBox="0 0 26.88 26.88"><defs><style>.cls-1{fill:#fff;}</style></defs><path class="cls-1" d="M29.19,24.7l-1.78,1.78a3.28,3.28,0,0,1-1.28.52A21,21,0,0,1,4.91,5.73a3.31,3.31,0,0,1,.52-1.22L7.21,2.73A3,3,0,0,1,10,2.07l.38.13a3.51,3.51,0,0,1,2,2.15l.9,3.29a3.22,3.22,0,0,1-.73,2.81l-1.19,1.2a12.61,12.61,0,0,0,8.88,8.89l1.2-1.19a3.24,3.24,0,0,1,2.82-.74l3.29.9a3.51,3.51,0,0,1,2.15,2l.13.38A3,3,0,0,1,29.19,24.7ZM20,13.56h1.68a3.37,3.37,0,0,0-3.36-3.36v1.68A1.69,1.69,0,0,1,20,13.56Zm6.72,0a8.4,8.4,0,0,0-8.4-8.4V6.84a6.73,6.73,0,0,1,6.72,6.72ZM18.35.12V1.8A11.78,11.78,0,0,1,30.11,13.56h1.68A13.44,13.44,0,0,0,18.35.12Z" transform="translate(-4.91 -0.12)"/></svg>